<mxfile host="65bd71144e">
    <diagram id="9tvoWyCVtJKj_8XDeDPY" name="Page-1">
        <mxGraphModel dx="2057" dy="699" grid="1" gridSize="10" guides="1" tooltips="1" connect="1" arrows="1" fold="1" page="1" pageScale="1" pageWidth="827" pageHeight="1169" math="0" shadow="0">
            <root>
                <mxCell id="0"/>
                <mxCell id="1" parent="0"/>
                <mxCell id="32" style="edgeStyle=none;html=1;fontColor=#000000;" edge="1" parent="1" source="26" target="22">
                    <mxGeometry relative="1" as="geometry"/>
                </mxCell>
                <mxCell id="33" style="edgeStyle=none;html=1;fontColor=#000000;" edge="1" parent="1" source="26" target="18">
                    <mxGeometry relative="1" as="geometry"/>
                </mxCell>
                <mxCell id="34" style="edgeStyle=none;html=1;fontColor=#000000;" edge="1" parent="1" source="26" target="20">
                    <mxGeometry relative="1" as="geometry"/>
                </mxCell>
                <mxCell id="35" style="edgeStyle=none;html=1;fontColor=#000000;" edge="1" parent="1" source="26" target="24">
                    <mxGeometry relative="1" as="geometry"/>
                </mxCell>
                <mxCell id="26" value="&lt;font color=&quot;#000000&quot;&gt;estilo.css&lt;/font&gt;" style="whiteSpace=wrap;html=1;aspect=fixed;strokeColor=#000000;fillColor=#FFFFFF;" vertex="1" parent="1">
                    <mxGeometry x="250" y="180" width="250" height="250" as="geometry"/>
                </mxCell>
                <mxCell id="36" value="" style="ellipse;whiteSpace=wrap;html=1;aspect=fixed;labelBackgroundColor=#000000;strokeColor=#000000;fontColor=#000000;fillColor=#3399FF;" vertex="1" parent="1">
                    <mxGeometry x="355" y="340" width="40" height="40" as="geometry"/>
                </mxCell>
                <mxCell id="20" value="Topo" style="rounded=0;whiteSpace=wrap;html=1;fillColor=#66B2FF;" vertex="1" parent="1">
                    <mxGeometry x="580" y="20" width="320" height="50" as="geometry"/>
                </mxCell>
                <mxCell id="21" value="Menu" style="rounded=0;whiteSpace=wrap;html=1;fillColor=#C2C24E;strokeColor=#000000;" vertex="1" parent="1">
                    <mxGeometry x="580" y="80" width="70" height="180" as="geometry"/>
                </mxCell>
                <mxCell id="24" value="Topo" style="rounded=0;whiteSpace=wrap;html=1;fillColor=#66B2FF;" vertex="1" parent="1">
                    <mxGeometry x="620" y="340" width="320" height="50" as="geometry"/>
                </mxCell>
                <mxCell id="25" value="Menu" style="rounded=0;whiteSpace=wrap;html=1;fillColor=#C2C24E;strokeColor=#000000;" vertex="1" parent="1">
                    <mxGeometry x="620" y="400" width="70" height="180" as="geometry"/>
                </mxCell>
                <mxCell id="22" value="Topo" style="rounded=0;whiteSpace=wrap;html=1;fillColor=#66B2FF;" vertex="1" parent="1">
                    <mxGeometry x="-180" y="330" width="320" height="50" as="geometry"/>
                </mxCell>
                <mxCell id="23" value="Menu" style="rounded=0;whiteSpace=wrap;html=1;fillColor=#C2C24E;strokeColor=#000000;" vertex="1" parent="1">
                    <mxGeometry x="-180" y="390" width="70" height="180" as="geometry"/>
                </mxCell>
                <mxCell id="18" value="Topo" style="rounded=0;whiteSpace=wrap;html=1;fillColor=#66B2FF;" vertex="1" parent="1">
                    <mxGeometry x="-150" y="30" width="320" height="50" as="geometry"/>
                </mxCell>
                <mxCell id="19" value="Menu" style="rounded=0;whiteSpace=wrap;html=1;fillColor=#C2C24E;strokeColor=#000000;" vertex="1" parent="1">
                    <mxGeometry x="-150" y="90" width="70" height="180" as="geometry"/>
                </mxCell>
            </root>
        </mxGraphModel>
    </diagram>
</mxfile>